<svg width="113" height="113" viewBox="0 0 113 113" fill="none" xmlns="http://www.w3.org/2000/svg">
<path d="M84.3005 0.900391V8.65659C75.8591 3.7373 66.2705 1.12921 56.5005 1.09499C49.2059 0.98492 41.9654 2.36287 35.2211 5.14469C28.4769 7.92651 22.3704 12.0538 17.2747 17.2746C12.0041 22.3427 7.83113 28.4396 5.01444 35.1872C2.19776 41.9348 0.797477 49.1892 0.900452 56.5004C0.791746 63.8172 2.18088 71.0789 4.98244 77.839C7.784 84.5991 11.9388 90.7146 17.1913 95.8096C22.2792 101.071 28.3935 105.232 35.1552 108.035C41.9169 110.837 49.1821 112.221 56.5005 112.1C66.7565 112.095 76.8041 109.204 85.4959 103.76C86.6265 106.18 88.3948 108.247 90.6111 109.737C92.8273 111.308 95.4844 112.135 98.2005 112.1H112.1V0.900391H84.3005ZM66.4251 40.015C66.4757 39.0015 66.7383 38.0099 67.196 37.1042C67.6537 36.1986 68.2963 35.399 69.0823 34.7571C69.8682 34.1152 70.7801 33.6454 71.7589 33.3778C72.7378 33.1103 73.7619 33.0511 74.7651 33.204C76.8188 33.8924 78.552 35.3044 79.6415 37.1765C80.731 39.0486 81.1024 41.2531 80.6865 43.3788C80.6401 44.3938 80.3803 45.3876 79.9239 46.2954C79.4676 47.2032 78.8249 48.0046 78.0379 48.6473C77.251 49.29 76.3373 49.7596 75.3567 50.0254C74.376 50.2911 73.3503 50.3472 72.3465 50.1898C70.2927 49.5013 68.5595 48.0894 67.47 46.2173C66.3805 44.3452 66.0091 42.1407 66.4251 40.015ZM50.4123 24.1968C51.3416 23.6604 52.3734 23.3256 53.4407 23.2143C54.5079 23.1029 55.5866 23.2175 56.6067 23.5505C57.6267 23.8835 58.5653 24.4275 59.3612 25.1472C60.1571 25.8668 60.7927 26.7459 61.2265 27.7274C62.443 29.657 62.9138 31.9643 62.5504 34.2163C62.187 36.4683 61.0144 38.5103 59.2527 39.9594C58.3233 40.4958 57.2915 40.8306 56.2242 40.9419C55.157 41.0533 54.0783 40.9387 53.0582 40.6057C52.0382 40.2727 51.0997 39.7286 50.3037 39.009C49.5078 38.2894 48.8722 37.4102 48.4385 36.4288C47.2219 34.4991 46.7511 32.1919 47.1145 29.9399C47.4779 27.6879 48.6505 25.6458 50.4123 24.1968ZM32.3145 32.0642C33.2427 31.5233 34.2749 31.185 35.3433 31.0713C36.4116 30.9576 37.4919 31.0712 38.5132 31.4047C39.5345 31.7381 40.4737 32.2838 41.2692 33.006C42.0646 33.7281 42.6983 34.6104 43.1287 35.5948C44.3452 37.5244 44.816 39.8317 44.4526 42.0837C44.0892 44.3357 42.9166 46.3777 41.1549 47.8268C40.2248 48.3668 39.191 48.7038 38.1213 48.8156C37.0517 48.9273 35.9705 48.8113 34.949 48.4752C33.9274 48.139 32.9886 47.5904 32.1943 46.8653C31.4 46.1402 30.7683 45.2552 30.3407 44.2684C29.126 42.343 28.6562 40.0403 29.0197 37.793C29.3831 35.5457 30.5548 33.5085 32.3145 32.0642ZM37.1795 65.4242C36.6088 66.2688 35.8666 66.9837 35.0012 67.5222C34.1358 68.0608 33.1666 68.411 32.1569 68.5501C31.1471 68.6891 30.1193 68.6138 29.1406 68.329C28.1619 68.0443 27.2541 67.5566 26.4765 66.8976C24.659 65.743 23.3203 63.9702 22.7072 61.9061C22.0941 59.8421 22.248 57.6259 23.1405 55.6664C23.7111 54.8218 24.4533 54.1069 25.3187 53.5683C26.1841 53.0297 27.1533 52.6795 28.1631 52.5405C29.1728 52.4015 30.2006 52.4768 31.1793 52.7615C32.158 53.0463 33.0658 53.534 33.8435 54.193C35.6676 55.3485 37.0109 57.1261 37.6243 59.1965C38.2377 61.2668 38.0797 63.4893 37.1795 65.452V65.4242ZM80.6031 74.5704C75.7103 78.3234 68.5379 73.9866 62.5887 76.5164C56.5005 78.7404 54.2765 87.0804 48.1605 87.6642C42.0445 88.248 37.3463 81.6872 42.9341 69.5942C46.7149 61.2542 45.7141 54.3876 52.4417 51.4686C59.1693 48.5496 63.4227 54.6378 71.9017 57.946C84.3005 62.7832 85.4959 70.8174 80.6031 74.5704Z" fill="#FCF0E3"/>
</svg>
