<svg width="85" height="417" viewBox="0 0 85 417" fill="none" xmlns="http://www.w3.org/2000/svg">
<path d="M56.5002 154.5C63.7002 94.1 22.5002 37 1.00018 16V397.5C73.8002 376.3 83.6909 324.784 64.0002 295.5C32.8002 249.1 49.3002 214.9 56.5002 154.5Z" fill="#36D6AD"/>
<path d="M1.00018 1C30.1668 29.5 85.3002 100.1 72.5002 154.5C59.7002 208.9 45.3002 242.1 72.5002 286.5C95.7795 324.5 87.8002 392.8 1.00018 416M1.00018 16C22.5002 37 63.7002 94.1 56.5002 154.5C49.3002 214.9 32.8002 249.1 64.0002 295.5C83.6909 324.784 73.8002 376.3 1.00018 397.5V16Z" stroke="#36D6AD" stroke-width="2"/>
</svg>
